<svg width="17" height="17" viewBox="0 0 17 17" fill="none" xmlns="http://www.w3.org/2000/svg">
<g id="carbon:search">
<path id="Vector" d="M15.4063 14.6551L11.3943 10.6431C12.3584 9.48564 12.8391 8.00107 12.7366 6.4982C12.634 4.99533 11.9559 3.58986 10.8435 2.57418C9.73104 1.5585 8.26985 1.0108 6.76387 1.04501C5.25789 1.07923 3.82308 1.69274 2.75792 2.7579C1.69275 3.82306 1.07925 5.25787 1.04503 6.76385C1.01081 8.26983 1.55851 9.73103 2.5742 10.8435C3.58988 11.9559 4.99534 12.634 6.49821 12.7365C8.00108 12.8391 9.48565 12.3584 10.6431 11.3943L14.6551 15.4063L15.4063 14.6551ZM2.12502 6.90625C2.12502 5.96061 2.40543 5.0362 2.9308 4.24993C3.45617 3.46366 4.2029 2.85083 5.07656 2.48895C5.95022 2.12707 6.91157 2.03239 7.83904 2.21687C8.76651 2.40136 9.61845 2.85673 10.2871 3.5254C10.9558 4.19407 11.4112 5.046 11.5956 5.97347C11.7801 6.90095 11.6854 7.8623 11.3236 8.73596C10.9617 9.60961 10.3489 10.3563 9.56259 10.8817C8.77631 11.4071 7.85191 11.6875 6.90627 11.6875C5.63863 11.6861 4.42332 11.1819 3.52696 10.2856C2.63061 9.3892 2.12642 8.17388 2.12502 6.90625Z" fill="#1E1E2E"/>
</g>
</svg>
